<svg xmlns="http://www.w3.org/2000/svg" version="1.1" xmlns:xlink="http://www.w3.org/1999/xlink" width="360px" height="360px"><svg xmlns="http://www.w3.org/2000/svg" xmlns:xlink="http://www.w3.org/1999/xlink" width="360px" height="360px" viewBox="0 0 360 360">
<path fill="none" stroke-width="5" stroke-linecap="round" stroke-linejoin="round" stroke="rgb(15.686275%, 20%, 18.82353%)" stroke-opacity="1" stroke-miterlimit="10" d="M 20 40 L 60 20 L 20 80 L 100 20 L 20 120 L 140 20 L 20 160 L 180 20 L 20 200 L 220 20 L 20 240 L 260 20 L 20 280 L 300 20 L 20 320 L 340 20 L 40 340 L 340 60 L 80 340 L 340 100 L 120 340 L 340 140 L 160 340 L 340 180 L 200 340 L 340 220 L 240 340 L 340 260 L 280 340 L 340 300 L 320 340 L 340 340 "></path>
<path fill="none" stroke-width="5" stroke-linecap="round" stroke-linejoin="round" stroke="rgb(38.039216%, 20.784314%, 51.372552%)" stroke-opacity="1" stroke-miterlimit="10" d="M 20 40 L 20 20 "></path>
<path fill="none" stroke-width="5" stroke-linecap="round" stroke-linejoin="round" stroke="rgb(38.039216%, 20.784314%, 51.372552%)" stroke-opacity="1" stroke-miterlimit="10" d="M 20 40 L 60 20 L 20 80 L 100 20 L 20 120 L 140 20 L 20 160 L 180 20 L 20 200 L 220 20 L 20 240 L 260 20 "></path>
<path fill="none" stroke-width="5" stroke-linecap="round" stroke-linejoin="round" stroke="rgb(38.039216%, 20.784314%, 51.372552%)" stroke-opacity="1" stroke-miterlimit="10" d="M 260 20 L 20 280 L 300 20 "></path>
<path fill="none" stroke-width="5" stroke-linecap="round" stroke-linejoin="round" stroke="rgb(38.039216%, 20.784314%, 51.372552%)" stroke-opacity="1" stroke-miterlimit="10" d="M 300 20 L 20 320 L 340 20 L 40 340 "></path>
<path fill="none" stroke-width="5" stroke-linecap="round" stroke-linejoin="round" stroke="rgb(38.039216%, 20.784314%, 51.372552%)" stroke-opacity="1" stroke-miterlimit="10" d="M 40 340 L 340 60 L 80 340 L 340 100 L 120 340 L 340 140 L 160 340 L 340 180 L 200 340 L 340 220 L 240 340 L 340 260 L 280 340 L 340 300 L 320 340 L 340 340 "></path>
<path fill="none" stroke-width="5" stroke-linecap="round" stroke-linejoin="round" stroke="rgb(12.156863%, 9.019608%, 13.725491%)" stroke-opacity="1" stroke-miterlimit="10" d="M 40 20 L 20 60 L 80 20 L 20 100 L 120 20 L 20 140 L 160 20 L 20 180 L 200 20 L 20 220 L 240 20 L 20 260 L 280 20 L 20 300 L 320 20 L 20 340 L 340 40 L 60 340 L 340 80 L 100 340 L 340 120 L 140 340 L 340 160 L 180 340 L 340 200 L 220 340 L 340 240 L 260 340 L 340 280 L 300 340 L 340 320 L 340 340 "></path>
<path fill="none" stroke-width="5" stroke-linecap="round" stroke-linejoin="round" stroke="rgb(12.156863%, 9.019608%, 13.725491%)" stroke-opacity="1" stroke-miterlimit="10" d="M 40 20 L 20 20 "></path>
<path fill="none" stroke-width="5" stroke-linecap="round" stroke-linejoin="round" stroke="rgb(86.274511%, 54.11765%, 86.666667%)" stroke-opacity="1" stroke-miterlimit="10" d="M 20 20 L 340 20 L 340 340 L 20 340 L 20 20 "></path>
</svg><style>@media (prefers-color-scheme: light) { :root { filter: none; } }
@media (prefers-color-scheme: dark) { :root { filter: none; } }
</style></svg>