<?xml version="1.0" encoding="UTF-8"?>
<svg xmlns="http://www.w3.org/2000/svg" xmlns:xlink="http://www.w3.org/1999/xlink" width="360px" height="360px" viewBox="0 0 360 360">
<path fill-rule="evenodd" fill="rgb(6.27451%, 5.882353%, 7.450981%)" fill-opacity="1" d="M 20 20 L 340 20 L 340 340 L 20 340 Z M 20 20 "/>
<path fill="none" stroke-width="18" stroke-linecap="round" stroke-linejoin="round" stroke="rgb(6.27451%, 5.882353%, 7.450981%)" stroke-opacity="1" stroke-miterlimit="10" d="M 20 20 L 340 20 L 340 340 L 20 340 L 20 20 "/>
<path fill="none" stroke-width="18" stroke-linecap="round" stroke-linejoin="round" stroke="rgb(96.470588%, 77.64706%, 65.882355%)" stroke-opacity="1" stroke-miterlimit="10" d="M 40 40 L 320 40 "/>
<path fill="none" stroke-width="18" stroke-linecap="round" stroke-linejoin="round" stroke="rgb(96.470588%, 77.64706%, 65.882355%)" stroke-opacity="1" stroke-miterlimit="10" d="M 40 80 L 320 80 "/>
<path fill="none" stroke-width="18" stroke-linecap="round" stroke-linejoin="round" stroke="rgb(81.960785%, 48.627451%, 48.627451%)" stroke-opacity="1" stroke-miterlimit="10" d="M 40 40 L 40 80 "/>
<path fill="none" stroke-width="18" stroke-linecap="round" stroke-linejoin="round" stroke="rgb(81.960785%, 48.627451%, 48.627451%)" stroke-opacity="1" stroke-miterlimit="10" d="M 40 40 L 40 60 "/>
<path fill="none" stroke-width="18" stroke-linecap="round" stroke-linejoin="round" stroke="rgb(81.960785%, 48.627451%, 48.627451%)" stroke-opacity="1" stroke-miterlimit="10" d="M 40 60 L 320 60 "/>
<path fill="none" stroke-width="18" stroke-linecap="round" stroke-linejoin="round" stroke="rgb(81.960785%, 48.627451%, 48.627451%)" stroke-opacity="1" stroke-miterlimit="10" d="M 320 300 L 40 300 "/>
<path fill="none" stroke-width="18" stroke-linecap="round" stroke-linejoin="round" stroke="rgb(96.470588%, 77.64706%, 65.882355%)" stroke-opacity="1" stroke-miterlimit="10" d="M 40 280 L 320 280 "/>
<path fill="none" stroke-width="18" stroke-linecap="round" stroke-linejoin="round" stroke="rgb(96.470588%, 77.64706%, 65.882355%)" stroke-opacity="1" stroke-miterlimit="10" d="M 40 320 L 320 320 "/>
<path fill="none" stroke-width="18" stroke-linecap="round" stroke-linejoin="round" stroke="rgb(81.960785%, 48.627451%, 48.627451%)" stroke-opacity="1" stroke-miterlimit="10" d="M 320 320 L 320 280 "/>
<path fill="none" stroke-width="18" stroke-linecap="round" stroke-linejoin="round" stroke="rgb(81.960785%, 48.627451%, 48.627451%)" stroke-opacity="1" stroke-miterlimit="10" d="M 80 180 L 280 180 "/>
<path fill-rule="evenodd" fill="rgb(96.470588%, 77.64706%, 65.882355%)" fill-opacity="1" d="M 60 200 L 100 160 Z M 60 200 "/>
<path fill="none" stroke-width="18" stroke-linecap="round" stroke-linejoin="round" stroke="rgb(96.470588%, 77.64706%, 65.882355%)" stroke-opacity="1" stroke-miterlimit="10" d="M 60 200 L 100 160 "/>
<path fill-rule="evenodd" fill="rgb(96.470588%, 77.64706%, 65.882355%)" fill-opacity="1" d="M 260 200 L 300 160 Z M 260 200 "/>
<path fill="none" stroke-width="18" stroke-linecap="round" stroke-linejoin="round" stroke="rgb(96.470588%, 77.64706%, 65.882355%)" stroke-opacity="1" stroke-miterlimit="10" d="M 260 200 L 300 160 "/>
<path fill-rule="evenodd" fill="rgb(96.470588%, 77.64706%, 65.882355%)" fill-opacity="1" d="M 60 200 L 40 220 Z M 60 200 "/>
<path fill="none" stroke-width="18" stroke-linecap="round" stroke-linejoin="round" stroke="rgb(96.470588%, 77.64706%, 65.882355%)" stroke-opacity="1" stroke-miterlimit="10" d="M 60 200 L 40 220 "/>
<path fill-rule="evenodd" fill="rgb(96.470588%, 77.64706%, 65.882355%)" fill-opacity="1" d="M 100 160 L 120 140 Z M 100 160 "/>
<path fill="none" stroke-width="18" stroke-linecap="round" stroke-linejoin="round" stroke="rgb(96.470588%, 77.64706%, 65.882355%)" stroke-opacity="1" stroke-miterlimit="10" d="M 100 160 L 120 140 "/>
<path fill-rule="evenodd" fill="rgb(96.470588%, 77.64706%, 65.882355%)" fill-opacity="1" d="M 240 220 L 320 140 Z M 240 220 "/>
<path fill="none" stroke-width="18" stroke-linecap="round" stroke-linejoin="round" stroke="rgb(96.470588%, 77.64706%, 65.882355%)" stroke-opacity="1" stroke-miterlimit="10" d="M 240 220 L 320 140 "/>
<path fill="none" stroke-width="18" stroke-linecap="round" stroke-linejoin="round" stroke="rgb(96.470588%, 77.64706%, 65.882355%)" stroke-opacity="1" stroke-miterlimit="10" d="M 320 140 L 320 80 "/>
<path fill="none" stroke-width="18" stroke-linecap="round" stroke-linejoin="round" stroke="rgb(96.470588%, 77.64706%, 65.882355%)" stroke-opacity="1" stroke-miterlimit="10" d="M 40 220 L 40 280 "/>
<path fill-rule="evenodd" fill="rgb(96.470588%, 77.64706%, 65.882355%)" fill-opacity="1" d="M 40 320 L 20 340 Z M 40 320 "/>
<path fill="none" stroke-width="18" stroke-linecap="round" stroke-linejoin="round" stroke="rgb(96.470588%, 77.64706%, 65.882355%)" stroke-opacity="1" stroke-miterlimit="10" d="M 40 320 L 20 340 "/>
<path fill-rule="evenodd" fill="rgb(96.470588%, 77.64706%, 65.882355%)" fill-opacity="1" d="M 320 40 L 340 20 Z M 320 40 "/>
<path fill="none" stroke-width="18" stroke-linecap="round" stroke-linejoin="round" stroke="rgb(96.470588%, 77.64706%, 65.882355%)" stroke-opacity="1" stroke-miterlimit="10" d="M 320 40 L 340 20 "/>
<path fill="none" stroke-width="18" stroke-linecap="round" stroke-linejoin="round" stroke="rgb(96.470588%, 77.64706%, 65.882355%)" stroke-opacity="1" stroke-miterlimit="10" d="M 120 140 L 120 160 "/>
<path fill="none" stroke-width="18" stroke-linecap="round" stroke-linejoin="round" stroke="rgb(96.470588%, 77.64706%, 65.882355%)" stroke-opacity="1" stroke-miterlimit="10" d="M 240 220 L 240 200 "/>
<path fill="none" stroke-width="18" stroke-linecap="round" stroke-linejoin="round" stroke="rgb(96.470588%, 77.64706%, 65.882355%)" stroke-opacity="1" stroke-miterlimit="10" d="M 240 200 L 100 200 "/>
<path fill="none" stroke-width="18" stroke-linecap="round" stroke-linejoin="round" stroke="rgb(96.470588%, 77.64706%, 65.882355%)" stroke-opacity="1" stroke-miterlimit="10" d="M 120 160 L 260 160 "/>
<path fill-rule="evenodd" fill="rgb(96.470588%, 77.64706%, 65.882355%)" fill-opacity="1" d="M 20 340 L 40 280 Z M 20 340 "/>
<path fill="none" stroke-width="18" stroke-linecap="round" stroke-linejoin="round" stroke="rgb(96.470588%, 77.64706%, 65.882355%)" stroke-opacity="1" stroke-miterlimit="10" d="M 20 340 L 40 280 "/>
<path fill-rule="evenodd" fill="rgb(96.470588%, 77.64706%, 65.882355%)" fill-opacity="1" d="M 340 20 L 320 80 Z M 340 20 "/>
<path fill="none" stroke-width="18" stroke-linecap="round" stroke-linejoin="round" stroke="rgb(96.470588%, 77.64706%, 65.882355%)" stroke-opacity="1" stroke-miterlimit="10" d="M 340 20 L 320 80 "/>
<path fill="none" stroke-width="18" stroke-linecap="round" stroke-linejoin="round" stroke="rgb(96.470588%, 77.64706%, 65.882355%)" stroke-opacity="1" stroke-miterlimit="10" d="M 100 200 L 60 200 "/>
<path fill="none" stroke-width="18" stroke-linecap="round" stroke-linejoin="round" stroke="rgb(96.470588%, 77.64706%, 65.882355%)" stroke-opacity="1" stroke-miterlimit="10" d="M 260 160 L 300 160 "/>
<path fill="none" stroke-width="18" stroke-linecap="round" stroke-linejoin="round" stroke="rgb(96.470588%, 77.64706%, 65.882355%)" stroke-opacity="1" stroke-miterlimit="10" d="M 100 160 L 120 160 "/>
<path fill="none" stroke-width="18" stroke-linecap="round" stroke-linejoin="round" stroke="rgb(96.470588%, 77.64706%, 65.882355%)" stroke-opacity="1" stroke-miterlimit="10" d="M 260 200 L 220 200 "/>
</svg>
