<?xml version="1.0" encoding="UTF-8"?>
<svg xmlns="http://www.w3.org/2000/svg" xmlns:xlink="http://www.w3.org/1999/xlink" width="360px" height="360px" viewBox="0 0 360 360">
<path fill="none" stroke-width="15" stroke-linecap="round" stroke-linejoin="round" stroke="rgb(0%, 0%, 0%)" stroke-opacity="1" stroke-miterlimit="10" d="M 140 100 L 140 260 "/>
<path fill="none" stroke-width="15" stroke-linecap="round" stroke-linejoin="round" stroke="rgb(0%, 0%, 0%)" stroke-opacity="1" stroke-miterlimit="10" d="M 220 100 L 220 260 "/>
<path fill="none" stroke-width="15" stroke-linecap="round" stroke-linejoin="round" stroke="rgb(0%, 0%, 0%)" stroke-opacity="1" stroke-miterlimit="10" d="M 100 100 L 260 260 "/>
<path fill="none" stroke-width="15" stroke-linecap="round" stroke-linejoin="round" stroke="rgb(0%, 0%, 0%)" stroke-opacity="1" stroke-miterlimit="10" d="M 100 260 L 260 100 "/>
<path fill="none" stroke-width="15" stroke-linecap="round" stroke-linejoin="round" stroke="rgb(88.235295%, 22.745095%, 58.039224%)" stroke-opacity="1" stroke-miterlimit="10" d="M 80 80 L 260 80 "/>
<path fill="none" stroke-width="15" stroke-linecap="round" stroke-linejoin="round" stroke="rgb(88.235295%, 22.745095%, 58.039224%)" stroke-opacity="1" stroke-miterlimit="10" d="M 280 280 L 100 280 "/>
<path fill="none" stroke-width="15" stroke-linecap="round" stroke-linejoin="round" stroke="rgb(12.156862%, 16.47059%, 35.686275%)" stroke-opacity="1" stroke-miterlimit="10" d="M 280 80 L 280 260 "/>
<path fill="none" stroke-width="15" stroke-linecap="round" stroke-linejoin="round" stroke="rgb(12.156862%, 16.47059%, 35.686275%)" stroke-opacity="1" stroke-miterlimit="10" d="M 80 280 L 80 100 "/>
<path fill="none" stroke-width="15" stroke-linecap="round" stroke-linejoin="round" stroke="rgb(0%, 0%, 0%)" stroke-opacity="1" stroke-miterlimit="10" d="M 180 180 L 220 180 L 220 160 L 200 160 L 200 200 L 220 200 L 200 160 "/>
<path fill="none" stroke-width="15" stroke-linecap="round" stroke-linejoin="round" stroke="rgb(0%, 0%, 0%)" stroke-opacity="1" stroke-miterlimit="10" d="M 180 180 L 140 180 L 160 160 L 160 200 L 140 180 L 140 220 "/>
<path fill="none" stroke-width="15" stroke-linecap="round" stroke-linejoin="round" stroke="rgb(0%, 0%, 0%)" stroke-opacity="1" stroke-miterlimit="10" d="M 140 220 L 160 160 L 140 160 "/>
<path fill="none" stroke-width="15" stroke-linecap="round" stroke-linejoin="round" stroke="rgb(0%, 0%, 0%)" stroke-opacity="1" stroke-miterlimit="10" d="M 260 100 L 220 100 L 240 120 L 220 140 L 240 100 "/>
<path fill="none" stroke-width="15" stroke-linecap="round" stroke-linejoin="round" stroke="rgb(0%, 0%, 0%)" stroke-opacity="1" stroke-miterlimit="10" d="M 260 260 L 220 260 L 240 240 L 260 260 L 220 240 "/>
<path fill="none" stroke-width="15" stroke-linecap="round" stroke-linejoin="round" stroke="rgb(0%, 0%, 0%)" stroke-opacity="1" stroke-miterlimit="10" d="M 140 260 L 100 260 L 140 240 "/>
<path fill="none" stroke-width="15" stroke-linecap="round" stroke-linejoin="round" stroke="rgb(0%, 0%, 0%)" stroke-opacity="1" stroke-miterlimit="10" d="M 100 100 L 140 100 L 120 120 "/>
<path fill="none" stroke-width="15" stroke-linecap="round" stroke-linejoin="round" stroke="rgb(0%, 0%, 0%)" stroke-opacity="1" stroke-miterlimit="10" d="M 100 100 L 140 120 "/>
<path fill="none" stroke-width="15" stroke-linecap="round" stroke-linejoin="round" stroke="rgb(12.156862%, 16.47059%, 35.686275%)" stroke-opacity="1" stroke-miterlimit="10" d="M 80 120 L 100 140 L 100 220 L 80 240 "/>
<path fill="none" stroke-width="15" stroke-linecap="round" stroke-linejoin="round" stroke="rgb(12.156862%, 16.47059%, 35.686275%)" stroke-opacity="1" stroke-miterlimit="10" d="M 280 120 L 260 140 L 260 220 L 280 240 "/>
<path fill="none" stroke-width="15" stroke-linecap="round" stroke-linejoin="round" stroke="rgb(12.156862%, 16.47059%, 35.686275%)" stroke-opacity="1" stroke-miterlimit="10" d="M 80 140 L 100 140 L 80 160 L 100 160 L 80 180 L 100 180 L 80 200 L 100 200 L 80 220 L 100 220 "/>
<path fill="none" stroke-width="15" stroke-linecap="round" stroke-linejoin="round" stroke="rgb(12.156862%, 16.47059%, 35.686275%)" stroke-opacity="1" stroke-miterlimit="10" d="M 280 140 L 260 140 L 280 160 L 260 160 L 280 180 L 260 200 L 280 200 L 260 220 L 280 220 L 260 180 "/>
</svg>
